<mxfile host="app.diagrams.net" modified="2024-04-01T07:17:28.092Z" agent="Mozilla/5.0 (Windows NT 10.0; Win64; x64) AppleWebKit/537.36 (KHTML, like Gecko) Chrome/123.0.0.0 Safari/537.36" version="24.2.1" etag="lNhcUMn7yLgD8sgRVGs6" type="device">
  <diagram id="W5sBcDYA2gDiPvX7O8nP" name="페이지-1">
    <mxGraphModel dx="2514" dy="918" grid="1" gridSize="10" guides="1" tooltips="1" connect="1" arrows="1" fold="1" page="1" pageScale="1" pageWidth="827" pageHeight="1169" math="0" shadow="0">
      <root>
        <mxCell id="0" />
        <mxCell id="1" parent="0" />
        <mxCell id="yeYjKGH7r__8eMo6vWX3-1" value="회원" style="shape=umlActor;verticalLabelPosition=bottom;verticalAlign=top;html=1;outlineConnect=0;labelBackgroundColor=none;rounded=0;sketch=1;curveFitting=1;jiggle=2;" vertex="1" parent="1">
          <mxGeometry x="-798" y="520" width="30" height="60" as="geometry" />
        </mxCell>
        <mxCell id="yeYjKGH7r__8eMo6vWX3-2" value="비회원" style="shape=umlActor;verticalLabelPosition=bottom;verticalAlign=top;html=1;outlineConnect=0;labelBackgroundColor=none;rounded=0;sketch=1;curveFitting=1;jiggle=2;" vertex="1" parent="1">
          <mxGeometry x="-798" y="150" width="30" height="60" as="geometry" />
        </mxCell>
        <mxCell id="yeYjKGH7r__8eMo6vWX3-3" value="관리자" style="shape=umlActor;verticalLabelPosition=bottom;verticalAlign=top;html=1;outlineConnect=0;labelBackgroundColor=none;rounded=0;sketch=1;curveFitting=1;jiggle=2;" vertex="1" parent="1">
          <mxGeometry x="310" y="330" width="30" height="60" as="geometry" />
        </mxCell>
        <mxCell id="yeYjKGH7r__8eMo6vWX3-7" value="" style="rounded=0;whiteSpace=wrap;html=1;labelBackgroundColor=none;sketch=1;curveFitting=1;jiggle=2;" vertex="1" parent="1">
          <mxGeometry x="-640" y="60" width="900" height="600" as="geometry" />
        </mxCell>
        <mxCell id="yeYjKGH7r__8eMo6vWX3-8" value="지역소개" style="ellipse;whiteSpace=wrap;html=1;labelBackgroundColor=none;rounded=0;sketch=1;curveFitting=1;jiggle=2;" vertex="1" parent="1">
          <mxGeometry x="-525" y="150" width="80" height="50" as="geometry" />
        </mxCell>
        <mxCell id="yeYjKGH7r__8eMo6vWX3-10" value="지명 유래&lt;div&gt;연혁&lt;/div&gt;" style="ellipse;whiteSpace=wrap;html=1;labelBackgroundColor=none;rounded=0;sketch=1;curveFitting=1;jiggle=2;" vertex="1" parent="1">
          <mxGeometry x="-610" y="80" width="70" height="40" as="geometry" />
        </mxCell>
        <mxCell id="yeYjKGH7r__8eMo6vWX3-11" value="지역특징 및 시설안내" style="ellipse;whiteSpace=wrap;html=1;labelBackgroundColor=none;rounded=0;sketch=1;curveFitting=1;jiggle=2;" vertex="1" parent="1">
          <mxGeometry x="-520" y="80" width="70" height="40" as="geometry" />
        </mxCell>
        <mxCell id="yeYjKGH7r__8eMo6vWX3-13" value="오시는길" style="ellipse;whiteSpace=wrap;html=1;labelBackgroundColor=none;rounded=0;sketch=1;curveFitting=1;jiggle=2;" vertex="1" parent="1">
          <mxGeometry x="-430" y="80" width="70" height="40" as="geometry" />
        </mxCell>
        <mxCell id="yeYjKGH7r__8eMo6vWX3-17" value="" style="endArrow=classic;html=1;rounded=0;entryX=0.5;entryY=0;entryDx=0;entryDy=0;exitX=1;exitY=1;exitDx=0;exitDy=0;labelBackgroundColor=none;fontColor=default;sketch=1;curveFitting=1;jiggle=2;" edge="1" parent="1" source="yeYjKGH7r__8eMo6vWX3-10" target="yeYjKGH7r__8eMo6vWX3-8">
          <mxGeometry width="50" height="50" relative="1" as="geometry">
            <mxPoint x="-520" y="430" as="sourcePoint" />
            <mxPoint x="-470" y="380" as="targetPoint" />
          </mxGeometry>
        </mxCell>
        <mxCell id="yeYjKGH7r__8eMo6vWX3-18" value="" style="endArrow=classic;html=1;rounded=0;entryX=0.5;entryY=0;entryDx=0;entryDy=0;exitX=0.5;exitY=1;exitDx=0;exitDy=0;labelBackgroundColor=none;fontColor=default;sketch=1;curveFitting=1;jiggle=2;" edge="1" parent="1" source="yeYjKGH7r__8eMo6vWX3-11" target="yeYjKGH7r__8eMo6vWX3-8">
          <mxGeometry width="50" height="50" relative="1" as="geometry">
            <mxPoint x="-540" y="124" as="sourcePoint" />
            <mxPoint x="-475" y="160" as="targetPoint" />
          </mxGeometry>
        </mxCell>
        <mxCell id="yeYjKGH7r__8eMo6vWX3-19" value="" style="endArrow=classic;html=1;rounded=0;entryX=0.5;entryY=0;entryDx=0;entryDy=0;exitX=0;exitY=1;exitDx=0;exitDy=0;labelBackgroundColor=none;fontColor=default;sketch=1;curveFitting=1;jiggle=2;" edge="1" parent="1" source="yeYjKGH7r__8eMo6vWX3-13" target="yeYjKGH7r__8eMo6vWX3-8">
          <mxGeometry width="50" height="50" relative="1" as="geometry">
            <mxPoint x="-530" y="134" as="sourcePoint" />
            <mxPoint x="-465" y="170" as="targetPoint" />
          </mxGeometry>
        </mxCell>
        <mxCell id="yeYjKGH7r__8eMo6vWX3-21" value="&amp;lt;include&amp;gt;" style="text;html=1;align=center;verticalAlign=middle;whiteSpace=wrap;rounded=0;rotation=30;labelBackgroundColor=none;sketch=1;curveFitting=1;jiggle=2;" vertex="1" parent="1">
          <mxGeometry x="-550" y="130" width="40" height="20" as="geometry" />
        </mxCell>
        <mxCell id="yeYjKGH7r__8eMo6vWX3-22" value="&amp;lt;include&amp;gt;" style="text;html=1;align=center;verticalAlign=middle;whiteSpace=wrap;rounded=0;labelBackgroundColor=none;sketch=1;curveFitting=1;jiggle=2;" vertex="1" parent="1">
          <mxGeometry x="-500" y="120" width="40" height="20" as="geometry" />
        </mxCell>
        <mxCell id="yeYjKGH7r__8eMo6vWX3-23" value="&amp;lt;include&amp;gt;" style="text;html=1;align=center;verticalAlign=middle;whiteSpace=wrap;rounded=0;rotation=-30;labelBackgroundColor=none;sketch=1;curveFitting=1;jiggle=2;" vertex="1" parent="1">
          <mxGeometry x="-453" y="130" width="40" height="20" as="geometry" />
        </mxCell>
        <mxCell id="yeYjKGH7r__8eMo6vWX3-26" value="내용수정" style="ellipse;whiteSpace=wrap;html=1;labelBackgroundColor=none;rounded=0;sketch=1;curveFitting=1;jiggle=2;" vertex="1" parent="1">
          <mxGeometry x="-250" y="155" width="70" height="40" as="geometry" />
        </mxCell>
        <mxCell id="yeYjKGH7r__8eMo6vWX3-28" value="" style="endArrow=classic;html=1;rounded=0;entryX=1;entryY=0.5;entryDx=0;entryDy=0;labelBackgroundColor=none;fontColor=default;sketch=1;curveFitting=1;jiggle=2;" edge="1" parent="1" source="yeYjKGH7r__8eMo6vWX3-3" target="yeYjKGH7r__8eMo6vWX3-26">
          <mxGeometry width="50" height="50" relative="1" as="geometry">
            <mxPoint x="-240" y="390" as="sourcePoint" />
            <mxPoint x="-190" y="340" as="targetPoint" />
          </mxGeometry>
        </mxCell>
        <mxCell id="yeYjKGH7r__8eMo6vWX3-29" value="" style="endArrow=classic;html=1;rounded=0;exitX=1;exitY=0.5;exitDx=0;exitDy=0;entryX=0;entryY=0.5;entryDx=0;entryDy=0;labelBackgroundColor=none;fontColor=default;sketch=1;curveFitting=1;jiggle=2;" edge="1" parent="1" source="yeYjKGH7r__8eMo6vWX3-8" target="yeYjKGH7r__8eMo6vWX3-26">
          <mxGeometry width="50" height="50" relative="1" as="geometry">
            <mxPoint x="-110" y="470" as="sourcePoint" />
            <mxPoint x="-60" y="420" as="targetPoint" />
          </mxGeometry>
        </mxCell>
        <mxCell id="yeYjKGH7r__8eMo6vWX3-30" value="&amp;lt;&amp;lt;extend&amp;gt;&amp;gt;" style="text;html=1;align=center;verticalAlign=middle;whiteSpace=wrap;rounded=0;labelBackgroundColor=none;sketch=1;curveFitting=1;jiggle=2;" vertex="1" parent="1">
          <mxGeometry x="-100" y="170" width="60" height="30" as="geometry" />
        </mxCell>
        <mxCell id="yeYjKGH7r__8eMo6vWX3-31" value="이용안내" style="ellipse;whiteSpace=wrap;html=1;labelBackgroundColor=none;rounded=0;sketch=1;curveFitting=1;jiggle=2;" vertex="1" parent="1">
          <mxGeometry x="-493" y="275" width="80" height="50" as="geometry" />
        </mxCell>
        <mxCell id="yeYjKGH7r__8eMo6vWX3-32" value="교통편 안내" style="ellipse;whiteSpace=wrap;html=1;labelBackgroundColor=none;rounded=0;sketch=1;curveFitting=1;jiggle=2;" vertex="1" parent="1">
          <mxGeometry x="-610" y="210" width="70" height="40" as="geometry" />
        </mxCell>
        <mxCell id="yeYjKGH7r__8eMo6vWX3-33" value="주요&lt;div&gt;관광안내&lt;/div&gt;" style="ellipse;whiteSpace=wrap;html=1;labelBackgroundColor=none;rounded=0;sketch=1;curveFitting=1;jiggle=2;" vertex="1" parent="1">
          <mxGeometry x="-525" y="210" width="70" height="40" as="geometry" />
        </mxCell>
        <mxCell id="yeYjKGH7r__8eMo6vWX3-34" value="맛집&lt;div&gt;안내&lt;/div&gt;" style="ellipse;whiteSpace=wrap;html=1;labelBackgroundColor=none;rounded=0;sketch=1;curveFitting=1;jiggle=2;" vertex="1" parent="1">
          <mxGeometry x="-430" y="210" width="70" height="40" as="geometry" />
        </mxCell>
        <mxCell id="yeYjKGH7r__8eMo6vWX3-35" value="숙박시설&lt;div&gt;안내&lt;/div&gt;" style="ellipse;whiteSpace=wrap;html=1;labelBackgroundColor=none;rounded=0;sketch=1;curveFitting=1;jiggle=2;" vertex="1" parent="1">
          <mxGeometry x="-345" y="210" width="70" height="40" as="geometry" />
        </mxCell>
        <mxCell id="yeYjKGH7r__8eMo6vWX3-36" value="" style="endArrow=classic;html=1;rounded=0;exitX=0.693;exitY=0.967;exitDx=0;exitDy=0;exitPerimeter=0;entryX=0.023;entryY=0.407;entryDx=0;entryDy=0;entryPerimeter=0;labelBackgroundColor=none;fontColor=default;sketch=1;curveFitting=1;jiggle=2;" edge="1" parent="1" source="yeYjKGH7r__8eMo6vWX3-32" target="yeYjKGH7r__8eMo6vWX3-31">
          <mxGeometry width="50" height="50" relative="1" as="geometry">
            <mxPoint x="-370" y="470" as="sourcePoint" />
            <mxPoint x="-320" y="420" as="targetPoint" />
          </mxGeometry>
        </mxCell>
        <mxCell id="yeYjKGH7r__8eMo6vWX3-37" value="" style="endArrow=classic;html=1;rounded=0;exitX=0.5;exitY=1;exitDx=0;exitDy=0;entryX=0;entryY=0;entryDx=0;entryDy=0;labelBackgroundColor=none;fontColor=default;sketch=1;curveFitting=1;jiggle=2;" edge="1" parent="1" source="yeYjKGH7r__8eMo6vWX3-33" target="yeYjKGH7r__8eMo6vWX3-31">
          <mxGeometry width="50" height="50" relative="1" as="geometry">
            <mxPoint x="-551" y="299" as="sourcePoint" />
            <mxPoint x="-468" y="350" as="targetPoint" />
          </mxGeometry>
        </mxCell>
        <mxCell id="yeYjKGH7r__8eMo6vWX3-38" value="" style="endArrow=classic;html=1;rounded=0;exitX=0.5;exitY=1;exitDx=0;exitDy=0;entryX=1;entryY=0;entryDx=0;entryDy=0;labelBackgroundColor=none;fontColor=default;sketch=1;curveFitting=1;jiggle=2;" edge="1" parent="1" source="yeYjKGH7r__8eMo6vWX3-34" target="yeYjKGH7r__8eMo6vWX3-31">
          <mxGeometry width="50" height="50" relative="1" as="geometry">
            <mxPoint x="-478" y="300" as="sourcePoint" />
            <mxPoint x="-458" y="337" as="targetPoint" />
          </mxGeometry>
        </mxCell>
        <mxCell id="yeYjKGH7r__8eMo6vWX3-39" value="" style="endArrow=classic;html=1;rounded=0;exitX=0.5;exitY=1;exitDx=0;exitDy=0;entryX=1;entryY=0.5;entryDx=0;entryDy=0;labelBackgroundColor=none;fontColor=default;sketch=1;curveFitting=1;jiggle=2;" edge="1" parent="1" source="yeYjKGH7r__8eMo6vWX3-35" target="yeYjKGH7r__8eMo6vWX3-31">
          <mxGeometry width="50" height="50" relative="1" as="geometry">
            <mxPoint x="-385" y="300" as="sourcePoint" />
            <mxPoint x="-402" y="337" as="targetPoint" />
          </mxGeometry>
        </mxCell>
        <mxCell id="yeYjKGH7r__8eMo6vWX3-40" value="&amp;lt;include&amp;gt;" style="text;html=1;align=center;verticalAlign=middle;whiteSpace=wrap;rounded=0;rotation=30;labelBackgroundColor=none;sketch=1;curveFitting=1;jiggle=2;" vertex="1" parent="1">
          <mxGeometry x="-563" y="310" width="40" height="20" as="geometry" />
        </mxCell>
        <mxCell id="yeYjKGH7r__8eMo6vWX3-41" value="&amp;lt;include&amp;gt;" style="text;html=1;align=center;verticalAlign=middle;whiteSpace=wrap;rounded=0;rotation=0;labelBackgroundColor=none;sketch=1;curveFitting=1;jiggle=2;" vertex="1" parent="1">
          <mxGeometry x="-400" y="300" width="40" height="20" as="geometry" />
        </mxCell>
        <mxCell id="yeYjKGH7r__8eMo6vWX3-42" value="&amp;lt;include&amp;gt;" style="text;html=1;align=center;verticalAlign=middle;whiteSpace=wrap;rounded=0;rotation=-30;labelBackgroundColor=none;sketch=1;curveFitting=1;jiggle=2;" vertex="1" parent="1">
          <mxGeometry x="-355" y="310" width="40" height="20" as="geometry" />
        </mxCell>
        <mxCell id="yeYjKGH7r__8eMo6vWX3-43" value="&amp;lt;include&amp;gt;" style="text;html=1;align=center;verticalAlign=middle;whiteSpace=wrap;rounded=0;rotation=0;labelBackgroundColor=none;sketch=1;curveFitting=1;jiggle=2;" vertex="1" parent="1">
          <mxGeometry x="-470" y="290" width="40" height="20" as="geometry" />
        </mxCell>
        <mxCell id="yeYjKGH7r__8eMo6vWX3-44" value="내용수정" style="ellipse;whiteSpace=wrap;html=1;labelBackgroundColor=none;rounded=0;sketch=1;curveFitting=1;jiggle=2;" vertex="1" parent="1">
          <mxGeometry x="-260" y="285" width="70" height="40" as="geometry" />
        </mxCell>
        <mxCell id="yeYjKGH7r__8eMo6vWX3-45" value="" style="endArrow=classic;html=1;rounded=0;entryX=0;entryY=0.5;entryDx=0;entryDy=0;exitX=0.971;exitY=0.623;exitDx=0;exitDy=0;exitPerimeter=0;labelBackgroundColor=none;fontColor=default;sketch=1;curveFitting=1;jiggle=2;" edge="1" parent="1" source="yeYjKGH7r__8eMo6vWX3-31" target="yeYjKGH7r__8eMo6vWX3-44">
          <mxGeometry width="50" height="50" relative="1" as="geometry">
            <mxPoint x="-380" y="310" as="sourcePoint" />
            <mxPoint x="-330" y="260" as="targetPoint" />
          </mxGeometry>
        </mxCell>
        <mxCell id="yeYjKGH7r__8eMo6vWX3-47" value="&amp;lt;&amp;lt;extend&amp;gt;&amp;gt;" style="text;html=1;align=center;verticalAlign=middle;whiteSpace=wrap;rounded=0;rotation=0;labelBackgroundColor=none;sketch=1;curveFitting=1;jiggle=2;" vertex="1" parent="1">
          <mxGeometry x="-130" y="310" width="60" height="30" as="geometry" />
        </mxCell>
        <mxCell id="yeYjKGH7r__8eMo6vWX3-48" value="공지사항" style="ellipse;whiteSpace=wrap;html=1;labelBackgroundColor=none;rounded=0;sketch=1;curveFitting=1;jiggle=2;" vertex="1" parent="1">
          <mxGeometry x="-480" y="455" width="80" height="50" as="geometry" />
        </mxCell>
        <mxCell id="yeYjKGH7r__8eMo6vWX3-49" value="목록 보기" style="ellipse;whiteSpace=wrap;html=1;labelBackgroundColor=none;rounded=0;sketch=1;curveFitting=1;jiggle=2;" vertex="1" parent="1">
          <mxGeometry x="-610" y="350" width="70" height="40" as="geometry" />
        </mxCell>
        <mxCell id="yeYjKGH7r__8eMo6vWX3-50" value="목록 보기" style="ellipse;whiteSpace=wrap;html=1;labelBackgroundColor=none;rounded=0;sketch=1;curveFitting=1;jiggle=2;" vertex="1" parent="1">
          <mxGeometry x="-280" y="560" width="70" height="40" as="geometry" />
        </mxCell>
        <mxCell id="yeYjKGH7r__8eMo6vWX3-51" value="" style="endArrow=classic;html=1;rounded=0;exitX=1;exitY=0.3333333333333333;exitDx=0;exitDy=0;exitPerimeter=0;entryX=0;entryY=0.5;entryDx=0;entryDy=0;labelBackgroundColor=none;fontColor=default;sketch=1;curveFitting=1;jiggle=2;" edge="1" parent="1" source="yeYjKGH7r__8eMo6vWX3-2" target="yeYjKGH7r__8eMo6vWX3-8">
          <mxGeometry width="50" height="50" relative="1" as="geometry">
            <mxPoint x="-570" y="370" as="sourcePoint" />
            <mxPoint x="-520" y="320" as="targetPoint" />
          </mxGeometry>
        </mxCell>
        <mxCell id="yeYjKGH7r__8eMo6vWX3-52" value="" style="endArrow=classic;html=1;rounded=0;entryX=0;entryY=1;entryDx=0;entryDy=0;exitX=1;exitY=0.3333333333333333;exitDx=0;exitDy=0;exitPerimeter=0;labelBackgroundColor=none;fontColor=default;sketch=1;curveFitting=1;jiggle=2;" edge="1" parent="1" source="yeYjKGH7r__8eMo6vWX3-2" target="yeYjKGH7r__8eMo6vWX3-31">
          <mxGeometry width="50" height="50" relative="1" as="geometry">
            <mxPoint x="-760" y="140" as="sourcePoint" />
            <mxPoint x="-515" y="185" as="targetPoint" />
          </mxGeometry>
        </mxCell>
        <mxCell id="yeYjKGH7r__8eMo6vWX3-53" value="" style="endArrow=classic;html=1;rounded=0;entryX=0.5;entryY=0;entryDx=0;entryDy=0;labelBackgroundColor=none;fontColor=default;sketch=1;curveFitting=1;jiggle=2;" edge="1" parent="1" target="yeYjKGH7r__8eMo6vWX3-49">
          <mxGeometry width="50" height="50" relative="1" as="geometry">
            <mxPoint x="-770" y="170" as="sourcePoint" />
            <mxPoint x="-458" y="373" as="targetPoint" />
          </mxGeometry>
        </mxCell>
        <mxCell id="yeYjKGH7r__8eMo6vWX3-57" value="&lt;font style=&quot;font-size: 15px;&quot;&gt;로그인&lt;/font&gt;" style="ellipse;whiteSpace=wrap;html=1;labelBackgroundColor=none;rounded=0;sketch=1;curveFitting=1;jiggle=2;" vertex="1" parent="1">
          <mxGeometry x="-610" y="610" width="70" height="40" as="geometry" />
        </mxCell>
        <mxCell id="yeYjKGH7r__8eMo6vWX3-58" value="회원" style="ellipse;whiteSpace=wrap;html=1;labelBackgroundColor=none;rounded=0;sketch=1;curveFitting=1;jiggle=2;" vertex="1" parent="1">
          <mxGeometry x="-473" y="560" width="80" height="50" as="geometry" />
        </mxCell>
        <mxCell id="yeYjKGH7r__8eMo6vWX3-59" value="&lt;font style=&quot;font-size: 15px;&quot;&gt;회원가입&lt;/font&gt;" style="ellipse;whiteSpace=wrap;html=1;labelBackgroundColor=none;rounded=0;sketch=1;curveFitting=1;jiggle=2;" vertex="1" parent="1">
          <mxGeometry x="-610" y="420" width="70" height="40" as="geometry" />
        </mxCell>
        <mxCell id="yeYjKGH7r__8eMo6vWX3-60" value="" style="endArrow=classic;html=1;rounded=0;exitX=0.5;exitY=0;exitDx=0;exitDy=0;exitPerimeter=0;labelBackgroundColor=none;fontColor=default;sketch=1;curveFitting=1;jiggle=2;" edge="1" parent="1" source="yeYjKGH7r__8eMo6vWX3-1" target="yeYjKGH7r__8eMo6vWX3-2">
          <mxGeometry width="50" height="50" relative="1" as="geometry">
            <mxPoint x="-690" y="370" as="sourcePoint" />
            <mxPoint x="-640" y="320" as="targetPoint" />
          </mxGeometry>
        </mxCell>
        <mxCell id="yeYjKGH7r__8eMo6vWX3-61" value="" style="endArrow=classic;html=1;rounded=0;exitX=1;exitY=0.3333333333333333;exitDx=0;exitDy=0;exitPerimeter=0;entryX=0;entryY=0.5;entryDx=0;entryDy=0;labelBackgroundColor=none;fontColor=default;sketch=1;curveFitting=1;jiggle=2;" edge="1" parent="1" source="yeYjKGH7r__8eMo6vWX3-1" target="yeYjKGH7r__8eMo6vWX3-57">
          <mxGeometry width="50" height="50" relative="1" as="geometry">
            <mxPoint x="-690" y="370" as="sourcePoint" />
            <mxPoint x="-640" y="320" as="targetPoint" />
          </mxGeometry>
        </mxCell>
        <mxCell id="yeYjKGH7r__8eMo6vWX3-62" value="" style="endArrow=classic;html=1;rounded=0;entryX=0;entryY=0;entryDx=0;entryDy=0;exitX=1;exitY=0.3333333333333333;exitDx=0;exitDy=0;exitPerimeter=0;labelBackgroundColor=none;fontColor=default;sketch=1;curveFitting=1;jiggle=2;" edge="1" parent="1" source="yeYjKGH7r__8eMo6vWX3-2" target="yeYjKGH7r__8eMo6vWX3-59">
          <mxGeometry width="50" height="50" relative="1" as="geometry">
            <mxPoint x="-770" y="160" as="sourcePoint" />
            <mxPoint x="-640" y="320" as="targetPoint" />
          </mxGeometry>
        </mxCell>
        <mxCell id="yeYjKGH7r__8eMo6vWX3-67" value="&lt;span style=&quot;color: rgb(204, 204, 255);&quot;&gt;글 수정&lt;/span&gt;" style="ellipse;whiteSpace=wrap;html=1;labelBackgroundColor=none;rounded=0;sketch=1;curveFitting=1;jiggle=2;" vertex="1" parent="1">
          <mxGeometry x="-510" y="390" width="70" height="40" as="geometry" />
        </mxCell>
        <mxCell id="yeYjKGH7r__8eMo6vWX3-68" value="&lt;span style=&quot;color: rgb(204, 204, 255);&quot;&gt;글 등록&lt;/span&gt;" style="ellipse;whiteSpace=wrap;html=1;labelBackgroundColor=none;rounded=0;sketch=1;curveFitting=1;jiggle=2;" vertex="1" parent="1">
          <mxGeometry x="-430" y="390" width="70" height="40" as="geometry" />
        </mxCell>
        <mxCell id="yeYjKGH7r__8eMo6vWX3-69" value="&lt;span style=&quot;color: rgb(204, 204, 255);&quot;&gt;글 삭제&lt;/span&gt;" style="ellipse;whiteSpace=wrap;html=1;labelBackgroundColor=none;rounded=0;sketch=1;curveFitting=1;jiggle=2;" vertex="1" parent="1">
          <mxGeometry x="-345" y="390" width="70" height="40" as="geometry" />
        </mxCell>
        <mxCell id="yeYjKGH7r__8eMo6vWX3-70" value="" style="endArrow=classic;html=1;rounded=0;exitX=0.5;exitY=1;exitDx=0;exitDy=0;entryX=0.063;entryY=0.3;entryDx=0;entryDy=0;entryPerimeter=0;labelBackgroundColor=none;fontColor=default;sketch=1;curveFitting=1;jiggle=2;" edge="1" parent="1" source="yeYjKGH7r__8eMo6vWX3-49" target="yeYjKGH7r__8eMo6vWX3-48">
          <mxGeometry width="50" height="50" relative="1" as="geometry">
            <mxPoint x="-330" y="370" as="sourcePoint" />
            <mxPoint x="-280" y="320" as="targetPoint" />
          </mxGeometry>
        </mxCell>
        <mxCell id="yeYjKGH7r__8eMo6vWX3-71" value="" style="endArrow=classic;html=1;rounded=0;exitX=0.5;exitY=1;exitDx=0;exitDy=0;entryX=0;entryY=0;entryDx=0;entryDy=0;labelBackgroundColor=none;fontColor=default;sketch=1;curveFitting=1;jiggle=2;" edge="1" parent="1" source="yeYjKGH7r__8eMo6vWX3-67" target="yeYjKGH7r__8eMo6vWX3-48">
          <mxGeometry width="50" height="50" relative="1" as="geometry">
            <mxPoint x="-555" y="430" as="sourcePoint" />
            <mxPoint x="-465" y="465" as="targetPoint" />
          </mxGeometry>
        </mxCell>
        <mxCell id="yeYjKGH7r__8eMo6vWX3-72" value="" style="endArrow=classic;html=1;rounded=0;exitX=0.5;exitY=1;exitDx=0;exitDy=0;entryX=0.738;entryY=0.08;entryDx=0;entryDy=0;entryPerimeter=0;labelBackgroundColor=none;fontColor=default;sketch=1;curveFitting=1;jiggle=2;" edge="1" parent="1" source="yeYjKGH7r__8eMo6vWX3-68" target="yeYjKGH7r__8eMo6vWX3-48">
          <mxGeometry width="50" height="50" relative="1" as="geometry">
            <mxPoint x="-545" y="440" as="sourcePoint" />
            <mxPoint x="-455" y="475" as="targetPoint" />
          </mxGeometry>
        </mxCell>
        <mxCell id="yeYjKGH7r__8eMo6vWX3-73" value="" style="endArrow=classic;html=1;rounded=0;exitX=0.286;exitY=1;exitDx=0;exitDy=0;exitPerimeter=0;labelBackgroundColor=none;fontColor=default;sketch=1;curveFitting=1;jiggle=2;" edge="1" parent="1" source="yeYjKGH7r__8eMo6vWX3-69" target="yeYjKGH7r__8eMo6vWX3-48">
          <mxGeometry width="50" height="50" relative="1" as="geometry">
            <mxPoint x="-535" y="450" as="sourcePoint" />
            <mxPoint x="-400" y="480" as="targetPoint" />
          </mxGeometry>
        </mxCell>
        <mxCell id="yeYjKGH7r__8eMo6vWX3-75" value="&lt;font color=&quot;#ccccff&quot;&gt;글 관리&lt;/font&gt;" style="ellipse;whiteSpace=wrap;html=1;labelBackgroundColor=none;rounded=0;sketch=1;curveFitting=1;jiggle=2;fontColor=#373763;" vertex="1" parent="1">
          <mxGeometry x="-425" y="340" width="70" height="40" as="geometry" />
        </mxCell>
        <mxCell id="yeYjKGH7r__8eMo6vWX3-77" value="" style="endArrow=classic;html=1;rounded=0;exitX=0.057;exitY=0.75;exitDx=0;exitDy=0;exitPerimeter=0;labelBackgroundColor=none;fontColor=default;sketch=1;curveFitting=1;jiggle=2;" edge="1" parent="1" source="yeYjKGH7r__8eMo6vWX3-75" target="yeYjKGH7r__8eMo6vWX3-67">
          <mxGeometry width="50" height="50" relative="1" as="geometry">
            <mxPoint x="-420" y="370" as="sourcePoint" />
            <mxPoint x="-370" y="320" as="targetPoint" />
          </mxGeometry>
        </mxCell>
        <mxCell id="yeYjKGH7r__8eMo6vWX3-78" value="" style="endArrow=classic;html=1;rounded=0;exitX=0.5;exitY=1;exitDx=0;exitDy=0;entryX=0.5;entryY=0;entryDx=0;entryDy=0;labelBackgroundColor=none;fontColor=default;sketch=1;curveFitting=1;jiggle=2;" edge="1" parent="1" source="yeYjKGH7r__8eMo6vWX3-75" target="yeYjKGH7r__8eMo6vWX3-68">
          <mxGeometry width="50" height="50" relative="1" as="geometry">
            <mxPoint x="-411" y="410" as="sourcePoint" />
            <mxPoint x="-447" y="443" as="targetPoint" />
          </mxGeometry>
        </mxCell>
        <mxCell id="yeYjKGH7r__8eMo6vWX3-79" value="" style="endArrow=classic;html=1;rounded=0;exitX=0.957;exitY=0.75;exitDx=0;exitDy=0;exitPerimeter=0;entryX=0.329;entryY=0.075;entryDx=0;entryDy=0;entryPerimeter=0;labelBackgroundColor=none;fontColor=default;sketch=1;curveFitting=1;jiggle=2;" edge="1" parent="1" source="yeYjKGH7r__8eMo6vWX3-75" target="yeYjKGH7r__8eMo6vWX3-69">
          <mxGeometry width="50" height="50" relative="1" as="geometry">
            <mxPoint x="-401" y="420" as="sourcePoint" />
            <mxPoint x="-437" y="453" as="targetPoint" />
          </mxGeometry>
        </mxCell>
        <mxCell id="yeYjKGH7r__8eMo6vWX3-80" value="" style="endArrow=classic;html=1;rounded=0;entryX=1;entryY=0.5;entryDx=0;entryDy=0;labelBackgroundColor=none;fontColor=default;sketch=1;curveFitting=1;jiggle=2;" edge="1" parent="1" source="yeYjKGH7r__8eMo6vWX3-3" target="yeYjKGH7r__8eMo6vWX3-75">
          <mxGeometry width="50" height="50" relative="1" as="geometry">
            <mxPoint x="-391" y="430" as="sourcePoint" />
            <mxPoint x="-427" y="463" as="targetPoint" />
          </mxGeometry>
        </mxCell>
        <mxCell id="yeYjKGH7r__8eMo6vWX3-82" value="" style="endArrow=classic;html=1;rounded=0;exitX=0;exitY=0.3333333333333333;exitDx=0;exitDy=0;exitPerimeter=0;entryX=1;entryY=0.5;entryDx=0;entryDy=0;labelBackgroundColor=none;fontColor=default;sketch=1;curveFitting=1;jiggle=2;" edge="1" parent="1" source="yeYjKGH7r__8eMo6vWX3-3" target="yeYjKGH7r__8eMo6vWX3-44">
          <mxGeometry width="50" height="50" relative="1" as="geometry">
            <mxPoint x="-50" y="320" as="sourcePoint" />
            <mxPoint y="270" as="targetPoint" />
          </mxGeometry>
        </mxCell>
        <mxCell id="yeYjKGH7r__8eMo6vWX3-84" value="" style="endArrow=classic;html=1;rounded=0;sketch=1;hachureGap=4;jiggle=2;curveFitting=1;fontFamily=Architects Daughter;fontSource=https%3A%2F%2Ffonts.googleapis.com%2Fcss%3Ffamily%3DArchitects%2BDaughter;exitX=1;exitY=0.5;exitDx=0;exitDy=0;entryX=0;entryY=0.5;entryDx=0;entryDy=0;" edge="1" parent="1" source="yeYjKGH7r__8eMo6vWX3-57" target="yeYjKGH7r__8eMo6vWX3-58">
          <mxGeometry width="50" height="50" relative="1" as="geometry">
            <mxPoint x="-470" y="630" as="sourcePoint" />
            <mxPoint x="-420" y="580" as="targetPoint" />
          </mxGeometry>
        </mxCell>
        <mxCell id="yeYjKGH7r__8eMo6vWX3-85" value="" style="endArrow=classic;html=1;rounded=0;sketch=1;hachureGap=4;jiggle=2;curveFitting=1;fontFamily=Architects Daughter;fontSource=https%3A%2F%2Ffonts.googleapis.com%2Fcss%3Ffamily%3DArchitects%2BDaughter;exitX=1.002;exitY=0.771;exitDx=0;exitDy=0;exitPerimeter=0;entryX=0.046;entryY=0.275;entryDx=0;entryDy=0;entryPerimeter=0;" edge="1" parent="1" source="yeYjKGH7r__8eMo6vWX3-59" target="yeYjKGH7r__8eMo6vWX3-58">
          <mxGeometry width="50" height="50" relative="1" as="geometry">
            <mxPoint x="-470" y="630" as="sourcePoint" />
            <mxPoint x="-420" y="580" as="targetPoint" />
          </mxGeometry>
        </mxCell>
        <mxCell id="yeYjKGH7r__8eMo6vWX3-87" value="&lt;font color=&quot;#ccccff&quot;&gt;회원관리&lt;/font&gt;" style="ellipse;whiteSpace=wrap;html=1;labelBackgroundColor=none;rounded=0;sketch=1;curveFitting=1;jiggle=2;fontColor=#373763;" vertex="1" parent="1">
          <mxGeometry x="-160" y="580" width="70" height="40" as="geometry" />
        </mxCell>
        <mxCell id="yeYjKGH7r__8eMo6vWX3-88" value="탈퇴" style="ellipse;whiteSpace=wrap;html=1;labelBackgroundColor=none;rounded=0;sketch=1;curveFitting=1;jiggle=2;" vertex="1" parent="1">
          <mxGeometry x="-610" y="470" width="70" height="40" as="geometry" />
        </mxCell>
        <mxCell id="yeYjKGH7r__8eMo6vWX3-89" value="" style="endArrow=classic;html=1;rounded=0;sketch=1;hachureGap=4;jiggle=2;curveFitting=1;fontFamily=Architects Daughter;fontSource=https%3A%2F%2Ffonts.googleapis.com%2Fcss%3Ffamily%3DArchitects%2BDaughter;entryX=1;entryY=0.5;entryDx=0;entryDy=0;exitX=0.002;exitY=0.358;exitDx=0;exitDy=0;exitPerimeter=0;" edge="1" parent="1" source="yeYjKGH7r__8eMo6vWX3-58" target="yeYjKGH7r__8eMo6vWX3-88">
          <mxGeometry width="50" height="50" relative="1" as="geometry">
            <mxPoint x="-470" y="510" as="sourcePoint" />
            <mxPoint x="-420" y="460" as="targetPoint" />
          </mxGeometry>
        </mxCell>
        <mxCell id="yeYjKGH7r__8eMo6vWX3-90" value="" style="endArrow=classic;html=1;rounded=0;sketch=1;hachureGap=4;jiggle=2;curveFitting=1;fontFamily=Architects Daughter;fontSource=https%3A%2F%2Ffonts.googleapis.com%2Fcss%3Ffamily%3DArchitects%2BDaughter;exitX=0.027;exitY=0.337;exitDx=0;exitDy=0;exitPerimeter=0;" edge="1" parent="1" source="yeYjKGH7r__8eMo6vWX3-88">
          <mxGeometry width="50" height="50" relative="1" as="geometry">
            <mxPoint x="-470" y="510" as="sourcePoint" />
            <mxPoint x="-780" y="210" as="targetPoint" />
          </mxGeometry>
        </mxCell>
        <mxCell id="yeYjKGH7r__8eMo6vWX3-91" value="정보수정" style="ellipse;whiteSpace=wrap;html=1;labelBackgroundColor=none;rounded=0;sketch=1;curveFitting=1;jiggle=2;" vertex="1" parent="1">
          <mxGeometry x="-610" y="520" width="70" height="40" as="geometry" />
        </mxCell>
        <mxCell id="yeYjKGH7r__8eMo6vWX3-92" value="" style="endArrow=classic;html=1;rounded=0;sketch=1;hachureGap=4;jiggle=2;curveFitting=1;fontFamily=Architects Daughter;fontSource=https%3A%2F%2Ffonts.googleapis.com%2Fcss%3Ffamily%3DArchitects%2BDaughter;entryX=1;entryY=0.5;entryDx=0;entryDy=0;exitX=0;exitY=0.5;exitDx=0;exitDy=0;" edge="1" parent="1" source="yeYjKGH7r__8eMo6vWX3-58" target="yeYjKGH7r__8eMo6vWX3-91">
          <mxGeometry width="50" height="50" relative="1" as="geometry">
            <mxPoint x="-480" y="620" as="sourcePoint" />
            <mxPoint x="-420" y="460" as="targetPoint" />
          </mxGeometry>
        </mxCell>
        <mxCell id="yeYjKGH7r__8eMo6vWX3-94" value="상세정보" style="ellipse;whiteSpace=wrap;html=1;labelBackgroundColor=none;rounded=0;sketch=1;curveFitting=1;jiggle=2;" vertex="1" parent="1">
          <mxGeometry x="-280" y="610" width="70" height="40" as="geometry" />
        </mxCell>
        <mxCell id="yeYjKGH7r__8eMo6vWX3-96" value="" style="endArrow=classic;html=1;rounded=0;sketch=1;hachureGap=4;jiggle=2;curveFitting=1;fontFamily=Architects Daughter;fontSource=https%3A%2F%2Ffonts.googleapis.com%2Fcss%3Ffamily%3DArchitects%2BDaughter;entryX=0;entryY=0.5;entryDx=0;entryDy=0;" edge="1" parent="1" target="yeYjKGH7r__8eMo6vWX3-91">
          <mxGeometry width="50" height="50" relative="1" as="geometry">
            <mxPoint x="-770" y="540" as="sourcePoint" />
            <mxPoint x="-420" y="460" as="targetPoint" />
          </mxGeometry>
        </mxCell>
        <mxCell id="yeYjKGH7r__8eMo6vWX3-97" style="edgeStyle=orthogonalEdgeStyle;rounded=0;sketch=1;hachureGap=4;jiggle=2;curveFitting=1;orthogonalLoop=1;jettySize=auto;html=1;exitX=1;exitY=1;exitDx=0;exitDy=0;entryX=0.64;entryY=1.138;entryDx=0;entryDy=0;entryPerimeter=0;fontFamily=Architects Daughter;fontSource=https%3A%2F%2Ffonts.googleapis.com%2Fcss%3Ffamily%3DArchitects%2BDaughter;" edge="1" parent="1">
          <mxGeometry relative="1" as="geometry">
            <mxPoint x="-120.5691946452539" y="474.32150658726505" as="sourcePoint" />
            <mxPoint x="-135.20000000000027" y="485.52" as="targetPoint" />
          </mxGeometry>
        </mxCell>
        <mxCell id="yeYjKGH7r__8eMo6vWX3-98" value="" style="endArrow=classic;html=1;rounded=0;sketch=1;hachureGap=4;jiggle=2;curveFitting=1;fontFamily=Architects Daughter;fontSource=https%3A%2F%2Ffonts.googleapis.com%2Fcss%3Ffamily%3DArchitects%2BDaughter;exitX=0;exitY=0.3333333333333333;exitDx=0;exitDy=0;exitPerimeter=0;entryX=1;entryY=0.5;entryDx=0;entryDy=0;" edge="1" parent="1" source="yeYjKGH7r__8eMo6vWX3-3" target="yeYjKGH7r__8eMo6vWX3-87">
          <mxGeometry width="50" height="50" relative="1" as="geometry">
            <mxPoint x="-470" y="510" as="sourcePoint" />
            <mxPoint x="-420" y="460" as="targetPoint" />
          </mxGeometry>
        </mxCell>
        <mxCell id="yeYjKGH7r__8eMo6vWX3-100" value="" style="endArrow=classic;html=1;rounded=0;sketch=1;hachureGap=4;jiggle=2;curveFitting=1;fontFamily=Architects Daughter;fontSource=https%3A%2F%2Ffonts.googleapis.com%2Fcss%3Ffamily%3DArchitects%2BDaughter;exitX=1;exitY=0.5;exitDx=0;exitDy=0;entryX=0;entryY=0.5;entryDx=0;entryDy=0;" edge="1" parent="1" source="yeYjKGH7r__8eMo6vWX3-50" target="yeYjKGH7r__8eMo6vWX3-87">
          <mxGeometry width="50" height="50" relative="1" as="geometry">
            <mxPoint x="-470" y="510" as="sourcePoint" />
            <mxPoint x="-420" y="460" as="targetPoint" />
          </mxGeometry>
        </mxCell>
        <mxCell id="yeYjKGH7r__8eMo6vWX3-101" value="" style="endArrow=classic;html=1;rounded=0;sketch=1;hachureGap=4;jiggle=2;curveFitting=1;fontFamily=Architects Daughter;fontSource=https%3A%2F%2Ffonts.googleapis.com%2Fcss%3Ffamily%3DArchitects%2BDaughter;exitX=1;exitY=0.5;exitDx=0;exitDy=0;entryX=0;entryY=1;entryDx=0;entryDy=0;" edge="1" parent="1" source="yeYjKGH7r__8eMo6vWX3-94" target="yeYjKGH7r__8eMo6vWX3-87">
          <mxGeometry width="50" height="50" relative="1" as="geometry">
            <mxPoint x="-200" y="590" as="sourcePoint" />
            <mxPoint x="-150" y="610" as="targetPoint" />
          </mxGeometry>
        </mxCell>
        <mxCell id="yeYjKGH7r__8eMo6vWX3-102" value="" style="endArrow=classic;html=1;rounded=0;sketch=1;hachureGap=4;jiggle=2;curveFitting=1;fontFamily=Architects Daughter;fontSource=https%3A%2F%2Ffonts.googleapis.com%2Fcss%3Ffamily%3DArchitects%2BDaughter;exitX=0;exitY=0;exitDx=0;exitDy=0;entryX=1;entryY=0;entryDx=0;entryDy=0;" edge="1" parent="1" source="yeYjKGH7r__8eMo6vWX3-50" target="yeYjKGH7r__8eMo6vWX3-58">
          <mxGeometry width="50" height="50" relative="1" as="geometry">
            <mxPoint x="-200" y="640" as="sourcePoint" />
            <mxPoint x="-139" y="624" as="targetPoint" />
          </mxGeometry>
        </mxCell>
        <mxCell id="yeYjKGH7r__8eMo6vWX3-103" value="" style="endArrow=classic;html=1;rounded=0;sketch=1;hachureGap=4;jiggle=2;curveFitting=1;fontFamily=Architects Daughter;fontSource=https%3A%2F%2Ffonts.googleapis.com%2Fcss%3Ffamily%3DArchitects%2BDaughter;exitX=0;exitY=0.5;exitDx=0;exitDy=0;entryX=0.988;entryY=0.675;entryDx=0;entryDy=0;entryPerimeter=0;" edge="1" parent="1" source="yeYjKGH7r__8eMo6vWX3-94" target="yeYjKGH7r__8eMo6vWX3-58">
          <mxGeometry width="50" height="50" relative="1" as="geometry">
            <mxPoint x="-259" y="576" as="sourcePoint" />
            <mxPoint x="-395" y="577" as="targetPoint" />
          </mxGeometry>
        </mxCell>
        <mxCell id="yeYjKGH7r__8eMo6vWX3-104" value="마이페이지" style="ellipse;whiteSpace=wrap;html=1;labelBackgroundColor=none;rounded=0;sketch=1;curveFitting=1;jiggle=2;" vertex="1" parent="1">
          <mxGeometry x="-610" y="565" width="70" height="40" as="geometry" />
        </mxCell>
        <mxCell id="yeYjKGH7r__8eMo6vWX3-105" value="" style="endArrow=classic;html=1;rounded=0;sketch=1;hachureGap=4;jiggle=2;curveFitting=1;fontFamily=Architects Daughter;fontSource=https%3A%2F%2Ffonts.googleapis.com%2Fcss%3Ffamily%3DArchitects%2BDaughter;exitX=1;exitY=0.5;exitDx=0;exitDy=0;" edge="1" parent="1" source="yeYjKGH7r__8eMo6vWX3-104" target="yeYjKGH7r__8eMo6vWX3-58">
          <mxGeometry width="50" height="50" relative="1" as="geometry">
            <mxPoint x="-470" y="510" as="sourcePoint" />
            <mxPoint x="-420" y="460" as="targetPoint" />
          </mxGeometry>
        </mxCell>
        <mxCell id="yeYjKGH7r__8eMo6vWX3-106" value="" style="endArrow=classic;html=1;rounded=0;sketch=1;hachureGap=4;jiggle=2;curveFitting=1;fontFamily=Architects Daughter;fontSource=https%3A%2F%2Ffonts.googleapis.com%2Fcss%3Ffamily%3DArchitects%2BDaughter;exitX=1;exitY=0.3333333333333333;exitDx=0;exitDy=0;exitPerimeter=0;entryX=0;entryY=0.5;entryDx=0;entryDy=0;" edge="1" parent="1" source="yeYjKGH7r__8eMo6vWX3-1" target="yeYjKGH7r__8eMo6vWX3-104">
          <mxGeometry width="50" height="50" relative="1" as="geometry">
            <mxPoint x="-530" y="595" as="sourcePoint" />
            <mxPoint x="-680" y="560" as="targetPoint" />
          </mxGeometry>
        </mxCell>
      </root>
    </mxGraphModel>
  </diagram>
</mxfile>
